<svg xmlns="http://www.w3.org/2000/svg" style="display: none;"><symbol id="book" viewBox="0 0 512 512"><title>book</title><path d="m498.87 433.676-126.621-398.363c-7.856-24.695-34.336-38.404-59.027-30.558l-45.757 14.542c-3.183 1.013-6.201 2.352-9.029 3.965-8.173-13.903-23.28-23.262-40.54-23.262h-48c-12.354 0-23.603 4.798-32 12.62-8.398-7.822-19.646-12.62-32-12.62h-48c-25.916 0-47 21.084-47 47v418c0 25.916 21.084 47 47 47h48c12.354 0 23.603-4.798 32-12.62 8.397 7.821 19.646 12.62 32 12.62h48c25.916 0 47-21.084 47-47v-298.659l98.645 310.346c6.355 19.98 24.902 32.769 44.831 32.769 4.703 0 9.483-.712 14.197-2.21l45.756-14.542c11.961-3.807 21.727-12.042 27.497-23.187 5.772-11.152 6.854-23.883 3.048-35.841zm-77.059-143.398-78.147 24.84-49.073-154.389 78.147-24.84zm9.088 28.59 10.299 32.403-78.147 24.84-10.299-32.403zm-278.003-175.868h82v162h-82zm-30 162h-82v-162h82zm-82 30h82v34h-82zm112 0h82v34h-82zm17-305h48c9.374 0 17 7.626 17 17v66h-82v-66c0-9.374 7.626-17 17-17zm-112 0h48c9.374 0 17 7.626 17 17v66h-82v-66c0-9.374 7.626-17 17-17zm48 452h-48c-9.374 0-17-7.626-17-17v-66h82v66c0 9.374-7.626 17-17 17zm112 0h-48c-9.374 0-17-7.626-17-17v-66h82v66c0 9.374-7.626 17-17 17zm47-420.319c.922-6.435 5.439-11.815 11.663-13.796l45.749-14.54c8.933-2.838 18.511 2.125 21.353 11.058l19.991 62.895-78.147 24.84-19.991-62.893c-.296-.929-.618-7.564-.618-7.564zm204.283 394.043c-2.088 4.034-5.624 7.014-9.948 8.391l-45.749 14.54c-8.929 2.838-18.511-2.124-21.353-11.058l-19.991-62.895 78.147-24.84 19.995 62.908c1.377 4.323.986 8.923-1.101 12.954z"/></symbol><symbol id="alarm" viewBox="0 0 469.333 469.333"><title>alarm</title><path d="M412.917,338.177C400.708,319.958,384,295.01,384,224v-32c0-67.512-45.066-124.63-106.667-143.043v-6.29 C277.333,19.135,258.188,0,234.667,0S192,19.135,192,42.667v6.29C130.401,67.37,85.333,124.488,85.333,192v32 c0,71.01-16.708,95.958-28.917,114.177c-7.063,10.552-13.75,20.521-13.75,35.156c0,34.775,72.495,46.978,131.271,51.181 c8.241,26.383,32.432,44.819,60.729,44.819s52.488-18.436,60.729-44.819c58.776-4.203,131.271-16.406,131.271-51.181 C426.667,358.698,419.979,348.729,412.917,338.177z M213.333,42.667c0-11.76,9.563-21.333,21.333-21.333S256,30.906,256,42.667 v1.704c-6.987-1.006-14.072-1.704-21.333-1.704s-14.346,0.698-21.333,1.704V42.667z M234.667,448 c-15.944,0-29.947-8.799-37.221-22.147c15.115,0.638,28.24,0.814,37.221,0.814c8.983,0,22.107-0.176,37.223-0.814 C264.615,439.201,250.611,448,234.667,448z M234.667,405.333c-97.688,0-170.667-16.896-170.667-32 c0-7.802,3.292-13.063,10.146-23.281C87.083,330.719,106.667,301.5,106.667,224v-32c0-70.583,57.417-128,128-128 s128,57.417,128,128v32c0,77.5,19.583,106.719,32.521,126.052c6.854,10.219,10.146,15.479,10.146,23.281 C405.333,388.438,332.354,405.333,234.667,405.333z"/></symbol><symbol id="users" viewBox="0 0 477.869 477.869"><title>users</title><path d="M387.415,233.496c48.976-44.029,52.987-119.424,8.958-168.4C355.991,20.177,288.4,12.546,239.02,47.332 c-53.83-37.99-128.264-25.149-166.254,28.68c-34.859,49.393-27.259,117.054,17.689,157.483 c-55.849,29.44-90.706,87.481-90.453,150.613v51.2c0,9.426,7.641,17.067,17.067,17.067h443.733 c9.426,0,17.067-7.641,17.067-17.067v-51.2C478.121,320.976,443.264,262.935,387.415,233.496z M307.201,59.842 c47.062-0.052,85.256,38.057,85.309,85.119c0.037,33.564-19.631,64.023-50.237,77.799c-1.314,0.597-2.628,1.143-3.959,1.707 c-4.212,1.699-8.556,3.051-12.988,4.045c-0.853,0.188-1.707,0.29-2.577,0.461c-4.952,0.949-9.977,1.457-15.019,1.519 c-2.27,0-4.557-0.171-6.827-0.375c-0.853,0-1.707,0-2.56-0.171c-9.7-1.142-19.136-3.923-27.904-8.226 c-0.324-0.154-0.7-0.137-1.024-0.273c-1.707-0.819-3.413-1.536-4.932-2.458c0.137-0.171,0.222-0.358,0.358-0.529 c7.826-10.056,13.996-21.296,18.278-33.297l0.529-1.434c1.947-5.732,3.459-11.602,4.523-17.562c0.154-0.87,0.273-1.707,0.41-2.645 c0.987-6.067,1.506-12.2,1.553-18.347c-0.049-6.135-0.568-12.257-1.553-18.313c-0.137-0.887-0.256-1.707-0.41-2.645 c-1.064-5.959-2.576-11.83-4.523-17.562l-0.529-1.434c-4.282-12.001-10.453-23.241-18.278-33.297 c-0.137-0.171-0.222-0.358-0.358-0.529C277.449,63.831,292.19,59.843,307.201,59.842z M85.335,145.176 c-0.121-47.006,37.886-85.21,84.892-85.331c22.034-0.057,43.232,8.434,59.134,23.686c0.99,0.956,1.963,1.911,2.918,2.901 c2.931,3.071,5.634,6.351,8.09,9.813c0.751,1.058,1.434,2.185,2.133,3.277c2.385,3.671,4.479,7.523,6.263,11.52 c0.427,0.973,0.751,1.963,1.126,2.935c1.799,4.421,3.215,8.989,4.233,13.653c0.12,0.512,0.154,1.024,0.256,1.553 c2.162,10.597,2.162,21.522,0,32.119c-0.102,0.529-0.137,1.041-0.256,1.553c-1.017,4.664-2.433,9.232-4.233,13.653 c-0.375,0.973-0.7,1.963-1.126,2.935c-1.786,3.991-3.88,7.837-6.263,11.503c-0.7,1.092-1.382,2.219-2.133,3.277 c-2.455,3.463-5.159,6.742-8.09,9.813c-0.956,0.99-1.929,1.946-2.918,2.901c-6.91,6.585-14.877,11.962-23.569,15.906 c-1.382,0.631-2.782,1.212-4.198,1.707c-4.114,1.633-8.347,2.945-12.663,3.925c-1.075,0.239-2.185,0.375-3.277,0.563 c-4.634,0.863-9.333,1.336-14.046,1.417h-1.877c-4.713-0.08-9.412-0.554-14.046-1.417c-1.092-0.188-2.202-0.324-3.277-0.563 c-4.316-0.98-8.55-2.292-12.663-3.925c-1.417-0.563-2.816-1.143-4.198-1.707C105.013,209.057,85.374,178.677,85.335,145.176z M307.201,418.242H34.135v-34.133c-0.25-57.833,36.188-109.468,90.76-128.614c29.296,12.197,62.249,12.197,91.546,0 c5.698,2.082,11.251,4.539,16.623,7.356c3.55,1.826,6.827,3.908,10.24,6.007c2.219,1.382,4.471,2.731,6.605,4.25 c3.294,2.338,6.4,4.881,9.455,7.492c1.963,1.707,3.908,3.413,5.751,5.12c2.816,2.662,5.461,5.478,8.004,8.363 c1.826,2.082,3.601,4.198,5.291,6.383c2.236,2.867,4.369,5.803,6.349,8.823c1.707,2.56,3.226,5.222,4.727,7.885 c1.707,2.935,3.277,5.871,4.71,8.926c1.434,3.055,2.697,6.4,3.925,9.66c1.075,2.833,2.219,5.649,3.106,8.533 c1.195,3.959,2.031,8.055,2.867,12.151c0.512,2.423,1.178,4.796,1.553,7.253c1.011,6.757,1.53,13.579,1.553,20.412V418.242z M443.735,418.242h-102.4v-34.133c0-5.342-0.307-10.633-0.785-15.872c-0.137-1.536-0.375-3.055-0.546-4.591 c-0.461-3.772-0.99-7.509-1.707-11.213c-0.307-1.581-0.631-3.169-0.973-4.762c-0.819-3.8-1.769-7.566-2.85-11.298 c-0.358-1.229-0.683-2.475-1.058-3.686c-4.779-15.277-11.704-29.797-20.565-43.127l-0.666-0.973 c-2.935-4.358-6.07-8.573-9.404-12.646l-0.119-0.154c-3.413-4.232-7.117-8.346-11.008-12.237c0.222,0,0.461,0,0.7,0 c4.816,0.633,9.666,0.975,14.524,1.024h0.939c4.496-0.039,8.985-0.33,13.449-0.87c1.399-0.171,2.782-0.427,4.181-0.649 c3.63-0.557,7.214-1.28,10.752-2.167c1.007-0.256,2.031-0.495,3.055-0.785c4.643-1.263,9.203-2.814,13.653-4.642 c54.612,19.127,91.083,70.785,90.829,128.649V418.242z"/></symbol><symbol id="heart" viewBox="0 -20 480 480"><title>heart</title><path d="m348 0c-43 .0664062-83.28125 21.039062-108 56.222656-24.71875-35.183594-65-56.1562498-108-56.222656-70.320312 0-132 65.425781-132 140 0 72.679688 41.039062 147.535156 118.6875 216.480469 35.976562 31.882812 75.441406 59.597656 117.640625 82.625 2.304687 1.1875 5.039063 1.1875 7.34375 0 42.183594-23.027344 81.636719-50.746094 117.601563-82.625 77.6875-68.945313 118.726562-143.800781 118.726562-216.480469 0-74.574219-61.679688-140-132-140zm-108 422.902344c-29.382812-16.214844-224-129.496094-224-282.902344 0-66.054688 54.199219-124 116-124 41.867188.074219 80.460938 22.660156 101.03125 59.128906 1.539062 2.351563 4.160156 3.765625 6.96875 3.765625s5.429688-1.414062 6.96875-3.765625c20.570312-36.46875 59.164062-59.054687 101.03125-59.128906 61.800781 0 116 57.945312 116 124 0 153.40625-194.617188 266.6875-224 282.902344zm0 0"/></symbol><symbol id="loupe" viewBox="0 0 512.005 512.005"><title>loupe</title><path d="M505.749,475.587l-145.6-145.6c28.203-34.837,45.184-79.104,45.184-127.317c0-111.744-90.923-202.667-202.667-202.667 S0,90.925,0,202.669s90.923,202.667,202.667,202.667c48.213,0,92.48-16.981,127.317-45.184l145.6,145.6 c4.16,4.16,9.621,6.251,15.083,6.251s10.923-2.091,15.083-6.251C514.091,497.411,514.091,483.928,505.749,475.587z M202.667,362.669c-88.235,0-160-71.765-160-160s71.765-160,160-160s160,71.765,160,160S290.901,362.669,202.667,362.669z"/></symbol><symbol id="star" viewBox="0 0 512 512"><title>star</title><polygon points="512,197.816 325.961,185.585 255.898,9.569 185.835,185.585 0,197.816 142.534,318.842 95.762,502.431 255.898,401.21 416.035,502.431 369.263,318.842 "/></symbol><symbol id="close-button" viewBox="0 0 357 357"><title>close-button</title><polygon points="357,35.7 321.3,0 178.5,142.8 35.7,0 0,35.7 142.8,178.5 0,321.3 35.7,357 178.5,214.2 321.3,357 357,321.3 214.2,178.5 "/></symbol></svg>